<svg xmlns="http://www.w3.org/2000/svg" height="16" viewBox="0 -960 960 960" width="16"><path d="M179.783-182.782q-38.305 0-65.653-27.348-27.348-27.348-27.348-65.653v-408.434q0-39.005 27.348-66.003 27.348-26.998 65.653-26.998h161.641q18.575 0 35.565 6.728 16.989 6.728 31.446 21.185L480-677.74h300.217q39.005 0 66.003 26.999 26.998 26.998 26.998 66.003v308.955q0 38.305-26.998 65.653-26.998 27.348-66.003 27.348H179.783Zm394.521-209.407v39.877q0 15.772 11.15 26.955 11.15 11.184 26.872 11.184t26.872-11.184q11.15-11.183 11.15-26.955v-39.877h41.467q15.486 0 26.749-11.184 11.263-11.183 11.263-26.816 0-15.632-11.15-26.721Q707.527-468 691.805-468h-41.457v-40.116q0-15.632-11.089-26.932-11.09-11.3-26.722-11.3-15.633 0-26.816 11.15-11.184 11.15-11.184 26.872V-468h-41.583q-15.535 0-26.832 11.15-11.296 11.15-11.296 26.872 0 15.422 11.15 26.605 11.15 11.184 26.872 11.184h41.456Z"/></svg>