<svg xmlns="http://www.w3.org/2000/svg" height="16" viewBox="0 -960 960 960" width="16"><path d="M480.565-114.021q-154.717 0-260.631-105.631Q114.021-325.282 114.021-480q0-121.891 69.565-218.891 69.564-97 191.173-131.739 54.37-14.218 77.284 5.782 22.913 20 7.131 74.674-2.152 19.239-5.108 36.837-2.957 17.597-2.957 35.249 0 94.957 66.859 161.533t162.381 66.576q19.282 0 36.13-1.576 16.847-1.575 36.521-4.793 55.544-16.282 74.196 3.903t4.434 72.425q-33.674 114.521-125.913 190.26-92.239 75.739-225.152 75.739Z"/></svg>