<svg xmlns="http://www.w3.org/2000/svg" height="16" viewBox="0 -960 960 960" width="16"><path d="M181.782-238.783v-320.826q0-22.066 9.293-41.262 9.294-19.195 27.881-33.652l205.217-153.912q26.348-18.653 55.827-18.653t55.827 18.653l205.217 153.912q18.587 14.457 27.881 33.652 9.293 19.196 9.293 41.262v320.826q0 43.955-30.523 74.478-30.523 30.523-74.478 30.523h-67.694q-18.888 0-32.694-13.806-13.807-13.807-13.807-32.694v-190.739q0-18.888-13.782-32.694-13.781-13.807-32.631-13.807h-64.868q-18.85 0-32.806 13.807-13.957 13.806-13.957 32.694v190.739q0 18.887-13.807 32.694-13.806 13.806-32.694 13.806h-67.694q-43.955 0-74.478-30.523-30.523-30.523-30.523-74.478Z"/></svg>