<svg xmlns="http://www.w3.org/2000/svg" height="16" viewBox="0 -960 960 960" width="16"><path d="M479.774-290.5q-78.774 0-134.024-55.476t-55.25-134.25q0-78.774 55.476-134.024t134.25-55.25q78.774 0 134.024 55.476t55.25 134.25q0 78.774-55.476 134.024t-134.25 55.25ZM84-433.499q-18.887 0-32.694-13.747Q37.5-460.992 37.5-479.789q0-18.798 13.807-32.755Q65.113-526.501 84-526.501h96q18.887 0 32.694 13.747 13.807 13.746 13.807 32.543 0 18.798-13.807 32.755-13.807 13.957-32.694 13.957H84Zm696 0q-18.887 0-32.694-13.747-13.807-13.746-13.807-32.543 0-18.798 13.807-32.755 13.807-13.957 32.694-13.957h96q18.887 0 32.694 13.747 13.807 13.746 13.807 32.543 0 18.798-13.807 32.755-13.807 13.957-32.694 13.957h-96Zm-299.789-300q-18.798 0-32.755-13.807-13.957-13.807-13.957-32.694v-96q0-18.887 13.747-32.694 13.746-13.807 32.543-13.807 18.798 0 32.755 13.807 13.957 13.807 13.957 32.694v96q0 18.887-13.747 32.694-13.746 13.807-32.543 13.807Zm0 696q-18.798 0-32.755-13.807Q433.499-65.113 433.499-84v-96q0-18.887 13.747-32.694 13.746-13.807 32.543-13.807 18.798 0 32.755 13.807 13.957 13.807 13.957 32.694v96q0 18.887-13.747 32.694Q499.008-37.5 480.211-37.5ZM234.456-659.391l-50-51q-14.457-13.457-14.457-31.544t14.957-33.109q12.826-14.457 31.446-14.707t32.642 14.207l51.565 50q14.957 13.833 14.674 32.791-.282 18.958-14.674 33.356-13.457 14.398-32.576 14.713-19.12.315-33.577-14.707Zm476.5 474.935-51.565-50q-14.457-13.558-14.707-32.062-.25-18.504 14.707-34.026 13.457-14.457 32.576-14.207 19.12.25 33.577 14.707l50 50.435q14.457 13.457 14.457 31.544t-14.479 33.109q-13.87 14.457-31.707 14.707-17.837.25-32.859-14.207Zm-51.559-474.935q-14.398-13.457-14.148-32.576.25-19.12 14.707-33.577l50.435-50q14.457-14.457 32.044-13.957 17.587.5 32.609 14.501 14.457 13.348 14.707 31.185.25 17.837-14.207 32.859l-50 51.565q-13.833 14.957-32.791 14.674-18.958-.282-33.356-14.674ZM184.956-184.956q-14.457-12.826-14.707-31.446t14.207-32.642l50-51.565q13.558-13.457 32.062-13.707 18.504-.25 34.026 13.707 14.457 14.457 13.748 33.243-.708 18.787-14.248 32.91l-50.435 50q-13.457 14.457-31.544 14.207t-33.109-14.707Z"/></svg>