<svg xmlns="http://www.w3.org/2000/svg" height="16" viewBox="0 -960 960 960" width="16"><path d="M226.783-133.782q-38.942 0-65.972-27.029-27.029-27.03-27.029-65.972v-506.434q0-38.942 27.029-65.972 27.03-27.029 65.972-27.029h188.238q18.888 0 32.694 13.746 13.807 13.746 13.807 32.544 0 18.798-13.807 32.754-13.806 13.957-32.694 13.957H226.783v506.434h506.434v-188.238q0-18.888 13.746-32.694 13.746-13.807 32.544-13.807 18.798 0 32.755 13.807 13.956 13.806 13.956 32.694v188.238q0 38.942-27.029 65.972-27.03 27.029-65.972 27.029H226.783Zm409.739-502.992H569.37q-16.626 0-28.737-12.135-12.111-12.135-12.111-28.695 0-16.56 12.111-28.626 12.111-12.066 28.737-12.066h67.152v-66.84q0-16.56 12.05-28.821 12.051-12.261 28.588-12.261 16.536 0 28.672 12.111 12.135 12.111 12.135 28.737v67.152h67.319q16.662 0 28.797 12.111 12.135 12.111 12.135 28.737 0 16.626-12.135 28.737-12.135 12.111-28.797 12.111h-67.319v67.152q0 16.626-12.135 28.737-12.136 12.111-28.462 12.111-16.626 0-28.737-12.135-12.111-12.135-12.111-28.797v-67.32Z"/></svg>