<svg xmlns="http://www.w3.org/2000/svg" height="16" viewBox="0 -960 960 960" width="16"><path d="M381.171-328.999q-102.254 0-174.224-71.911-71.97-71.911-71.97-174.044 0-102.133 71.911-174.09 71.911-71.957 174.044-71.957 102.133 0 174.09 71.97 71.957 71.97 71.957 174.224 0 40.353-10.87 75.047-10.869 34.695-30.108 63.064l207.095 207.184q14.839 15.382 14.839 32.686 0 17.305-15.522 32.261-14.956 14.957-33.043 14.957-18.088 0-32.92-14.826L520.073-369.977q-29.095 19.739-64.105 30.358-35.009 10.62-74.797 10.62Zm-.193-93.002q64.413 0 108.706-44.293Q533.977-510.587 533.977-575q0-64.413-44.293-108.706-44.293-44.293-108.706-44.293-64.413 0-108.706 44.293Q227.979-639.413 227.979-575q0 64.413 44.293 108.706 44.293 44.293 108.706 44.293Z"/></svg>